<svg height="512pt" viewBox="0 0 512 512" width="512pt" xmlns="http://www.w3.org/2000/svg" xmlns:xlink="http://www.w3.org/1999/xlink"><linearGradient id="a" gradientUnits="userSpaceOnUse" x1="0" x2="512" y1="256" y2="256"><stop offset="0" stop-color="#00f38d"/><stop offset="1" stop-color="#009eff"/></linearGradient><path d="m512 256c0 141.386719-114.613281 256-256 256s-256-114.613281-256-256 114.613281-256 256-256 256 114.613281 256 256zm0 0" fill="url(#a)"/><g fill="#fff"><path d="m363.546875 225.601562c-23.992187 0-38.898437 9.71875-47.683594 19.074219-11.921875-12.375-28.097656-19.074219-46.527343-19.074219-35.984376 0-62.105469 27.335938-62.105469 64.992188 0 22.359375 13.675781 46.457031 40.644531 71.621094 23.660156 22.078125 49.585938 37.570312 54.546875 40.453125 2.023437 1.175781 6.527344 3.773437 6.527344 3.773437l7.492187 4.320313 7.492188-4.320313s4.503906-2.597656 6.527344-3.773437c4.957031-2.882813 30.882812-18.375 54.542968-40.453125 26.972656-25.164063 40.644532-49.261719 40.644532-71.617188.003906-37.660156-26.117188-64.996094-62.101563-64.996094zm-47.109375 150.511719c-31.078125-18.308593-79.207031-57.082031-79.207031-85.519531 0-20.929688 12.902343-34.992188 32.105469-34.992188 4.941406 0 9.433593.785157 13.476562 2.316407 4.824219 2.476562 9.195312 5.78125 13.082031 9.417969.695313.835937 1.375 1.703124 2.011719 2.632812l.398438-.277344c11.796874 12.054688 18.441406 26.402344 18.441406 26.402344s5.894531-14.410156 17.261718-26.476562l.238282.144531c.269531-.433594.554687-.847657.839844-1.265625 4.101562-4.171875 8.875-7.988282 14.300781-10.738282 4.140625-1.429687 8.859375-2.15625 14.160156-2.15625 19.203125 0 32.105469 14.0625 32.105469 34.996094 0 28.429688-48.128906 67.207032-79.214844 85.515625zm0 0"/><path d="m233.691406 380.421875h-74.707031c-6.257813 0-11.351563-5.09375-11.351563-11.351563v-164.042968h-.007812l107.546875-98.117188 103.203125 94.164063h39.101562l-142.304687-129.835938-168.824219 154.015625 17.761719 19.46875 13.523437-12.339844v136.6875c0 22.800782 18.550782 41.351563 41.351563 41.351563h107.824219c-10.777344-7.585937-22.414063-20.261719-33.117188-30zm0 0"/></g></svg>