<svg id="svg" xmlns="http://www.w3.org/2000/svg" xmlns:xlink="http://www.w3.org/1999/xlink" width="400" height="361.2903225806451" viewBox="0, 0, 400,361.2903225806451"><g id="svgg"><path id="path0" d="M191.003 0.631 C 179.081 2.865,177.360 4.425,87.201 94.772 C -4.399 186.562,1.167 180.267,1.868 191.269 C 2.544 201.892,9.697 209.314,20.327 210.425 C 27.836 211.210,31.987 208.956,39.891 199.801 L 46.022 192.701 46.492 244.092 C 47.022 302.072,46.937 301.266,54.081 315.475 C 64.323 335.845,82.993 350.743,107.957 358.465 L 115.699 360.860 202.581 360.860 C 300.180 360.860,292.934 361.312,307.955 354.294 C 326.996 345.399,340.449 329.350,347.271 307.390 L 349.634 299.785 349.914 247.505 L 350.194 195.225 356.620 200.830 C 364.661 207.843,368.870 210.008,375.490 210.540 C 391.482 211.824,403.086 195.318,396.506 180.645 C 393.962 174.973,226.886 8.019,220.645 4.913 C 211.850 0.536,200.364 -1.123,191.003 0.631 M307.947 221.933 C 307.939 276.237,307.700 291.208,306.788 294.624 C 304.069 304.802,298.101 312.336,289.675 316.228 L 284.301 318.710 204.906 318.938 C 116.733 319.191,120.498 319.407,109.247 313.454 C 99.411 308.249,91.285 298.878,89.536 290.721 C 88.909 287.797,88.602 263.985,88.602 218.240 L 88.602 150.113 142.578 96.132 L 196.554 42.150 252.256 97.847 L 307.957 153.543 307.947 221.933 M156.934 150.950 C 131.591 156.465,115.161 182.266,120.766 207.742 C 126.174 232.319,151.219 259.398,190.032 282.631 L 199.849 288.507 205.086 285.635 C 243.202 264.729,273.371 233.504,279.096 209.032 C 289.392 165.026,240.465 132.928,203.807 159.639 L 199.871 162.506 196.925 160.081 C 186.598 151.581,170.705 147.952,156.934 150.950 " stroke="none" fill="#d83f87" fill-rule="evenodd"></path></g></svg>